<?xml version="1.0" encoding="utf-8"?>
<!-- Generator: Adobe Illustrator 18.1.0, SVG Export Plug-In . SVG Version: 6.00 Build 0)  -->
<!DOCTYPE svg PUBLIC "-//W3C//DTD SVG 1.1//EN" "http://www.w3.org/Graphics/SVG/1.1/DTD/svg11.dtd">
<svg version="1.1" id="Layer_1" xmlns="http://www.w3.org/2000/svg" xmlns:xlink="http://www.w3.org/1999/xlink" x="0px" y="0px"
	 viewBox="-370 231 218.8 99" enable-background="new -370 231 218.8 99" xml:space="preserve">
<polygon fill="#575C6F" points="-151.2,271.6 -158.1,265.9 -181.2,293.5 -195,282 -177.7,261.3 -184.6,255.5 -201.9,276.2 
	-215.8,264.7 -192.7,237.1 -199.6,231.3 -251.5,293.5 -265.3,282 -248,261.3 -254.9,255.5 -272.2,276.2 -286,264.7 -263,237.1 
	-269.9,231.3 -321.8,293.5 -361,260.8 -361,231 -370,231 -370,306.2 -361,306.2 -361,272.5 -320.6,306.2 -291.8,271.6 -250.3,306.2 
	-221.5,271.6 -221.5,271.6 -180,306.2 "/>
<rect x="-351.6" y="247.1" transform="matrix(-0.6402 0.7682 -0.7682 -0.6402 -346.6041 665.491)" fill="#575C6F" width="45" height="9"/>
</svg>
